<?xml version="1.0" encoding="UTF-8" standalone="no"?>
<!-- Created with Inkscape (http://www.inkscape.org/) -->

<svg
   xmlns:dc="http://purl.org/dc/elements/1.1/"
   xmlns:cc="http://creativecommons.org/ns#"
   xmlns:rdf="http://www.w3.org/1999/02/22-rdf-syntax-ns#"
   xmlns:svg="http://www.w3.org/2000/svg"
   xmlns="http://www.w3.org/2000/svg"
   xmlns:sodipodi="http://sodipodi.sourceforge.net/DTD/sodipodi-0.dtd"
   xmlns:inkscape="http://www.inkscape.org/namespaces/inkscape"
   width="744.09448819"
   height="1052.3622047"
   id="svg2"
   sodipodi:version="0.32"
   inkscape:version="0.47 r22583"
   sodipodi:docname="laxkit-logo.svg"
   version="1.1">
  <defs
     id="defs4">
    <inkscape:perspective
       sodipodi:type="inkscape:persp3d"
       inkscape:vp_x="0 : 526.18109 : 1"
       inkscape:vp_y="0 : 1000 : 0"
       inkscape:vp_z="744.09448 : 526.18109 : 1"
       inkscape:persp3d-origin="372.04724 : 350.78739 : 1"
       id="perspective15" />
  </defs>
  <sodipodi:namedview
     id="base"
     pagecolor="#ffffff"
     bordercolor="#666666"
     borderopacity="1.0"
     inkscape:pageopacity="0.0"
     inkscape:pageshadow="2"
     inkscape:zoom="0.5"
     inkscape:cx="377.19318"
     inkscape:cy="456.17357"
     inkscape:document-units="px"
     inkscape:current-layer="layer2"
     inkscape:window-width="1274"
     inkscape:window-height="970"
     inkscape:window-x="0"
     inkscape:window-y="0"
     showgrid="false"
     inkscape:window-maximized="0" />
  <metadata
     id="metadata7">
    <rdf:RDF>
      <cc:Work
         rdf:about="">
        <dc:format>image/svg+xml</dc:format>
        <dc:type
           rdf:resource="http://purl.org/dc/dcmitype/StillImage" />
        <dc:title></dc:title>
      </cc:Work>
    </rdf:RDF>
  </metadata>
  <g
     inkscape:label="Layer 1"
     inkscape:groupmode="layer"
     id="layer1" />
  <g
     inkscape:groupmode="layer"
     id="layer2"
     inkscape:label="stuff">
    <g
       id="g2830">
      <path
         style="color:#000000;fill:#00007f;fill-opacity:1;fill-rule:evenodd;stroke:#008200;stroke-width:0.89999998;stroke-linecap:butt;stroke-linejoin:miter;stroke-miterlimit:4;stroke-opacity:1;stroke-dasharray:none;stroke-dashoffset:0;marker:none;visibility:visible;display:inline;overflow:visible"
         d="m 115.35715,192.00504 c 0.38472,39.60503 3.21428,166.07143 3.21428,188.92857 0,22.85714 -20.840023,25.23983 -33.520667,33.95395 -11.255257,7.7346 -17.259308,13.48136 -16.479334,18.90319 0.66953,4.6541 2.192837,7.31576 4.436727,7.14286 13.109681,-1.01017 165.206134,-5 175.206134,-5 2.85714,0 5.35714,-4.28571 6.78571,-6.42857 2.13368,-3.20052 34.12314,-65.69034 34.64286,-70.71429 1.07142,-10.35714 -7.5,-3.92857 -16.42858,6.42857 -7.94226,9.21301 -33.21428,38.57143 -61.78571,40 -28.57143,1.42857 -50,0 -56.42857,0 -6.42857,0 -9.28571,-2.14285 -8.57143,-18.57142 0.71429,-16.42858 6.42857,-185.71429 6.42857,-193.57143 0,-7.85715 18.57143,-20.71429 37.85715,-20.71429 19.28571,0 18.57142,-11.42857 1.42857,-11.42857 C 175,160.93361 95,158.07647 80,158.07647 c -15,0 -10,12.14285 0,12.14285 10,0 33.92857,0.71429 35.35715,21.78572 z"
         id="path2832"
         sodipodi:nodetypes="cssssssssssssssssc"
         />
      <path
         style="color:#000000;fill:#00007f;fill-opacity:1;fill-rule:evenodd;stroke:#008200;stroke-width:0.89999998;stroke-linecap:butt;stroke-linejoin:miter;stroke-miterlimit:4;stroke-opacity:1;stroke-dasharray:none;stroke-dashoffset:0;marker:none;visibility:visible;display:inline;overflow:visible"
         d="m 258.96621,179.30489 c -10.04464,0.11161 -18.35017,0.47826 -20.65625,6.35311 -2.24133,5.70989 -59.02871,184.56075 -59.02871,184.56075 0,-10e-6 -16.4375,10.72321 -16.4375,16.4375 -1e-5,5.71429 4.29018,5.71875 10.71875,5.71875 6.42857,0 41.31925,-0.58923 45.72917,-0.67096 3.41604,-0.0633 8.80473,-1.56261 10.97824,-3.37153 5.12991,-4.2694 1.29832,-6.42447 -6.93763,-6.55074 -8.68863,-0.13322 -7.47452,-13.84926 -6.90818,-23.71927 0.64698,-11.27532 12.61799,-48.42656 14.04656,-53.42656 1.42856,-4.99999 6.83342,-5.21367 11.11913,-5.21367 4.28572,-1e-5 48.41021,2.94826 53.41021,2.23398 5,-0.71428 7.14286,1.41072 10,7.125 2.85714,5.7143 52.1384,95.02232 54.28125,98.59375 2.14286,3.57143 -4.27679,5.70536 -8.5625,8.5625 -4.28572,2.85713 -1.43304,5.71429 4.28125,5 5.71429,-0.7143 31.42169,-2.79186 37.84375,-3.5625 8.92856,-1.07142 2.72456,-6.79463 -5.34375,-9.29464 -5.11712,-1.58557 -11.78125,-13.57143 -16.78125,-22.14286 -5,-8.57144 -87.86607,-194.2991 -96.4375,-202.15625 -3.21428,-2.94643 -9.28825,-4.54333 -15.31504,-4.47636 z m 8.15275,36.99123 c 2.85714,4.99999 16.0864,41.06549 17.87211,45.70834 1.14672,2.98147 0.004,6.77679 -5.70982,6.77679 -5.71428,10e-6 -27.781,-0.54402 -32.42386,-0.90117 -4.33203,-0.33324 -5.71875,-3.58482 -5.71875,-2.15625 2.14286,-11.42858 13.57143,-46.42857 15,-50 1.42857,-3.57141 1.43304,-5.71875 5.71875,-5.71875 3.21429,0 4.54728,5.04104 5.26157,6.29104 z"
         id="path2834"
         sodipodi:nodetypes="czcsssssssssssssssssccssscsss"
         />
      <path
         style="color:#000000;fill:#00007f;fill-opacity:1;fill-rule:evenodd;stroke:#008200;stroke-width:0.89999998;stroke-linecap:butt;stroke-linejoin:miter;stroke-miterlimit:4;stroke-opacity:1;stroke-dasharray:none;stroke-dashoffset:0;marker:none;visibility:visible;display:inline;overflow:visible"
         d="m 287.14286,419.50504 c 4.28571,-9.28572 32.85714,-75 32.85714,-75 l 13.92858,26.42857 c 0,0 -15.35715,35.71429 -18.21429,39.28571 -2.85715,3.57143 -0.71429,7.85715 2.85714,7.85715 3.57143,0 5,7.85714 -1.42857,8.57143 -6.42857,0.71428 -30,0.71428 -35,0.71428 -4.64286,0 -7.14286,-4.28571 -1.42858,-6.42857 3.89979,-1.46242 7.14286,-1.42857 6.42858,-1.42857 z"
         id="path2836"
         sodipodi:nodetypes="cccsssssc"
         />
      <path
         style="color:#000000;fill:#00007f;fill-opacity:1;fill-rule:evenodd;stroke:#008200;stroke-width:0.89999998;stroke-linecap:butt;stroke-linejoin:miter;stroke-miterlimit:4;stroke-opacity:1;stroke-dasharray:none;stroke-dashoffset:0;marker:none;visibility:visible;display:inline;overflow:visible"
         d="m 337.85714,306.6479 15,29.28571 14.54569,-27.6987 c 0,0 47.9438,85.46918 52.9438,91.89776 5,6.42857 20.82197,12.05619 31.42858,13.57142 9.99999,1.42857 17.39118,-1.03264 9.28571,-5.71428 -6.45759,-3.72985 -14.98873,-10.84182 -17.5,-15 -4.59259,-7.60442 -60.35714,-112.14286 -60.35714,-112.14286 0,0 33.22479,-71.34191 38.93908,-79.91334 5.71428,-8.57143 24.28571,-14.28571 35,-14.28571 10.71428,0 5.71428,-8.57143 -3.57143,-10 -9.28572,-1.42858 -37.85714,-4.28572 -45.71429,7.14285 -7.85714,11.42857 -38.93908,67.77049 -38.93908,67.77049 0,0 -33.57143,-70 -42.85714,-80 -9.28571,-10 -31.42857,-12.85715 -43.57143,-13.57143 -12.14286,-0.71429 -15,7.14286 -3.57143,7.85714 11.42857,0.71429 22.14286,5 29.28572,15.71429 7.14285,10.71428 45.71428,94.28571 45.71428,94.28571 l -16.06092,30.80095 z"
         id="path2838"
         sodipodi:nodetypes="cccsssscsssscsssscc"
         />
      <path
         style="color:#000000;fill:#00007f;fill-opacity:1;fill-rule:evenodd;stroke:#008200;stroke-width:0.89999998;stroke-linecap:butt;stroke-linejoin:miter;stroke-miterlimit:4;stroke-opacity:1;stroke-dasharray:none;stroke-dashoffset:0;marker:none;visibility:visible;display:inline;overflow:visible"
         d="m 427.43872,208.74743 c 5.89506,-7.29423 18.06293,-13.31409 30.06128,-15.31382 12.85715,-2.14286 25.92336,-3.70949 31.78571,-1.07143 7.14286,3.21429 7.97778,7.11796 1.42858,6.42857 -6.78572,-0.71428 -13.57143,-0.71428 -14.28572,6.42857 -0.71428,7.14286 1.42857,66.42858 1.42857,66.42858 0,0 37.85715,-55.71429 45,-64.28572 7.14286,-8.57143 29.28572,-25.71428 47.14286,-25 17.85714,0.71429 10.71429,7.85714 2.85714,7.85714 -7.85714,0 -19.28571,10.71429 -25.71428,22.85715 -6.42857,12.14285 -35.71429,72.14285 -35.71429,72.14285 0,0 48.57143,88.57143 57.85714,101.42858 9.28572,12.85714 17.83983,25.54345 28.10225,28.62218 10.71428,3.21429 9.28572,7.50001 2.14285,6.42857 -7.80225,-1.17034 -36.67367,-5.05075 -48.81652,-21.47933 -12.14286,-16.42857 -56.78572,-84.28571 -56.78572,-84.28571 l -8.21428,12.85714 c 0,0 -2.14286,42.14286 -0.71429,52.85715 1.42857,10.71428 8.09975,20.3337 15,25 6.55738,4.43443 7.97657,8.1231 0.71429,6.42857 -10.71429,-2.5 -21.76002,-5.67265 -30.97734,-9.93129 -7.98476,-3.68917 -17.28845,-11.70993 -18.93075,-13.95395 -2.61688,-3.57569 -9.09025,-12.23036 -7.30601,-13.92935 2.34011,-2.22832 13.58401,14.81433 13.67329,-6.35819 0.0265,-6.42851 -3.60205,-133.68437 -2.88777,-141.54151 0.71429,-7.85714 -3.32851,-18.72862 -10.33176,-18.2935 -5.42165,0.33685 -9.63008,3.17693 -13.01149,4.25163 -3.38142,1.0747 -6.69343,-0.62613 -3.50374,-4.57288 z"
         id="path2840"
         sodipodi:nodetypes="csssscsssscssssccsssssssssss"
         />
      <path
         style="color:#000000;fill:#00007f;fill-opacity:1;fill-rule:evenodd;stroke:#008200;stroke-width:1.00168204;stroke-linecap:butt;stroke-linejoin:miter;stroke-miterlimit:4;stroke-opacity:1;stroke-dasharray:none;stroke-dashoffset:0;marker:none;visibility:visible;display:inline;overflow:visible"
         d="m 610.58339,176.45378 c 14.94486,-2.41047 109.33344,-4.82094 119.55887,-4.01744 10.22543,0.80349 21.23742,5.62442 11.79857,6.42792 -9.43885,0.80348 -41.9279,12.09444 -45.86075,13.70143 -3.93286,1.60696 -6.83953,3.97534 -7.6261,10.40326 -0.78658,6.42792 -1.57316,194.44453 0,203.28291 1.57314,8.8384 6.42329,12.1247 13.3717,16.06981 15.49576,8.79805 6.42358,10.63173 0.78657,9.64187 -11.31937,-1.98767 -40.84994,-18.69252 -43.56486,-39.45875 -3.26216,-24.95206 -1.75679,-181.28865 -2.54335,-186.91309 -0.78658,-5.62442 -3.87295,-10.06467 -10.58877,-14.33651 -6.19171,-3.93847 -23.22988,-5.58233 -36.66542,-5.62442 -9.46992,-0.0297 -7.31875,-5.96303 1.33354,-9.17699 z"
         id="path2842"
         sodipodi:nodetypes="csssssssssssc"
         />
      <path
         style="color:#000000;fill:#00007f;fill-opacity:1;fill-rule:evenodd;stroke:#008200;stroke-width:0.98604935;stroke-linecap:butt;stroke-linejoin:miter;stroke-miterlimit:4;stroke-opacity:1;stroke-dasharray:none;stroke-dashoffset:0;marker:none;visibility:visible;display:inline;overflow:visible"
         d="m 575.07572,204.29604 c 10.22545,-5.45024 14.27417,-6.84254 24.49959,-6.84254 10.22544,0 18.56642,-0.12241 26.43213,5.32785 7.86573,5.45024 5.02771,10.49154 -2.36363,9.05597 -4.82692,-0.9375 -7.1312,-0.98261 -7.55442,5.73755 -0.54064,8.58429 8.05922,166.56193 8.65228,172.85061 0.96627,10.246 14.76516,18.72734 22.024,22.57959 8.79574,4.66786 15.73145,12.45769 5.506,11.67909 -10.22542,-0.77861 -40.11513,-7.78606 -49.554,-19.46515 -9.43886,-11.6791 -8.65229,-24.13681 -9.43886,-36.59451 -0.78657,-12.4577 -4.71943,-138.59194 -5.50601,-144.82078 -0.78655,-6.22885 1.62884,-12.03234 -2.6592,-12.8674 -4.28804,-0.83507 -7.01139,-0.12584 -11.12394,1.02166 -6.11251,1.70556 -8.35279,-2.21169 1.08606,-7.66194 z"
         id="path2844"
         sodipodi:nodetypes="csssssssssszsc"
         />
    </g>
    <g
       id="g2821"
       transform="translate(110.28571,420.85714)"
	   >
      <path
         sodipodi:nodetypes="cssssssssssssssssc"
         id="path1306"
         d="m 115.35715,192.00504 c 0.38472,39.60503 3.21428,166.07143 3.21428,188.92857 0,22.85714 -20.840023,25.23983 -33.520667,33.95395 -11.255257,7.7346 -17.259308,13.48136 -16.479334,18.90319 0.66953,4.6541 2.192837,7.31576 4.436727,7.14286 13.109681,-1.01017 165.206134,-5 175.206134,-5 2.85714,0 5.35714,-4.28571 6.78571,-6.42857 2.13368,-3.20052 34.12314,-65.69034 34.64286,-70.71429 1.07142,-10.35714 -7.5,-3.92857 -16.42858,6.42857 -7.94226,9.21301 -33.21428,38.57143 -61.78571,40 -28.57143,1.42857 -50,0 -56.42857,0 -6.42857,0 -9.28571,-2.14285 -8.57143,-18.57142 0.71429,-16.42858 6.42857,-185.71429 6.42857,-193.57143 0,-7.85715 18.57143,-20.71429 37.85715,-20.71429 19.28571,0 18.57142,-11.42857 1.42857,-11.42857 C 175,160.93361 95,158.07647 80,158.07647 c -15,0 -10,12.14285 0,12.14285 10,0 33.92857,0.71429 35.35715,21.78572 z"
         style="color:#000000;fill:#00007f;fill-opacity:1;fill-rule:evenodd;stroke:#008200;stroke-width:0.89999998;stroke-linecap:butt;stroke-linejoin:miter;stroke-miterlimit:4;stroke-opacity:1;stroke-dasharray:none;stroke-dashoffset:0;marker:none;visibility:visible;display:inline;overflow:visible" />
      <path
         sodipodi:nodetypes="czcsssssssssssssssssccssscsss"
         id="path1328"
         d="m 258.96621,179.30489 c -10.04464,0.11161 -18.35017,0.47826 -20.65625,6.35311 -2.24133,5.70989 -59.02871,184.56075 -59.02871,184.56075 0,-10e-6 -16.4375,10.72321 -16.4375,16.4375 -1e-5,5.71429 4.29018,5.71875 10.71875,5.71875 6.42857,0 41.31925,-0.58923 45.72917,-0.67096 3.41604,-0.0633 8.80473,-1.56261 10.97824,-3.37153 5.12991,-4.2694 1.29832,-6.42447 -6.93763,-6.55074 -8.68863,-0.13322 -7.47452,-13.84926 -6.90818,-23.71927 0.64698,-11.27532 12.61799,-48.42656 14.04656,-53.42656 1.42856,-4.99999 6.83342,-5.21367 11.11913,-5.21367 4.28572,-1e-5 48.41021,2.94826 53.41021,2.23398 5,-0.71428 7.14286,1.41072 10,7.125 2.85714,5.7143 52.1384,95.02232 54.28125,98.59375 2.14286,3.57143 -4.27679,5.70536 -8.5625,8.5625 -4.28572,2.85713 -1.43304,5.71429 4.28125,5 5.71429,-0.7143 28.92169,-2.79186 38.59375,-2.5625 8.99009,0.21319 1.97456,-7.79463 -6.09375,-10.29464 -5.11712,-1.58557 -11.78125,-13.57143 -16.78125,-22.14286 -5,-8.57144 -87.86607,-194.2991 -96.4375,-202.15625 -3.21428,-2.94643 -9.28825,-4.54333 -15.31504,-4.47636 z m 8.15275,36.99123 c 2.85714,4.99999 16.0864,41.06549 17.87211,45.70834 1.14672,2.98147 0.004,6.77679 -5.70982,6.77679 -5.71428,10e-6 -27.781,-0.54402 -32.42386,-0.90117 -4.33203,-0.33324 -5.71875,-3.58482 -5.71875,-2.15625 2.14286,-11.42858 13.57143,-46.42857 15,-50 1.42857,-3.57141 1.43304,-5.71875 5.71875,-5.71875 3.21429,0 4.54728,5.04104 5.26157,6.29104 z"
         style="color:#000000;fill:#00007f;fill-opacity:1;fill-rule:evenodd;stroke:#008200;stroke-width:0.89999998;stroke-linecap:butt;stroke-linejoin:miter;stroke-miterlimit:4;stroke-opacity:1;stroke-dasharray:none;stroke-dashoffset:0;marker:none;visibility:visible;display:inline;overflow:visible" />
      <path
         sodipodi:nodetypes="cccsssssc"
         id="path2075"
         d="m 287.14286,419.50504 c 4.28571,-9.28572 32.85714,-75 32.85714,-75 l 13.92858,26.42857 c 0,0 -15.35715,35.71429 -18.21429,39.28571 -2.85715,3.57143 -0.71429,7.85715 2.85714,7.85715 3.57143,0 5,7.85714 -1.42857,8.57143 -6.42857,0.71428 -30,0.71428 -35,0.71428 -4.64286,0 -7.14286,-4.28571 -1.42858,-6.42857 3.89979,-1.46242 7.14286,-1.42857 6.42858,-1.42857 z"
         style="color:#000000;fill:#00007f;fill-opacity:1;fill-rule:evenodd;stroke:#008200;stroke-width:0.89999998;stroke-linecap:butt;stroke-linejoin:miter;stroke-miterlimit:4;stroke-opacity:1;stroke-dasharray:none;stroke-dashoffset:0;marker:none;visibility:visible;display:inline;overflow:visible" />
      <path
         sodipodi:nodetypes="cccsssscsssscsssscc"
         id="path2079"
         d="m 337.85714,306.6479 15,29.28571 14.54569,-27.6987 c 0,0 53.4438,96.46918 58.4438,102.89776 5,6.42857 20.82197,12.05619 31.42858,13.57142 9.99999,1.42857 17.39118,-1.03264 9.28571,-5.71428 -6.45759,-3.72985 -14.98873,-10.84182 -17.5,-15 -4.59259,-7.60442 -65.85714,-123.14286 -65.85714,-123.14286 0,0 33.22479,-71.34191 38.93908,-79.91334 5.71428,-8.57143 24.28571,-14.28571 35,-14.28571 10.71428,0 5.71428,-8.57143 -3.57143,-10 -9.28572,-1.42858 -37.85714,-4.28572 -45.71429,7.14285 -7.85714,11.42857 -38.93908,67.77049 -38.93908,67.77049 0,0 -33.57143,-70 -42.85714,-80 -9.28571,-10 -31.42857,-12.85715 -43.57143,-13.57143 -12.14286,-0.71429 -15,7.14286 -3.57143,7.85714 11.42857,0.71429 22.14286,5 29.28572,15.71429 7.14285,10.71428 45.71428,94.28571 45.71428,94.28571 l -16.06092,30.80095 z"
         style="color:#000000;fill:#00007f;fill-opacity:1;fill-rule:evenodd;stroke:#008200;stroke-width:0.89999998;stroke-linecap:butt;stroke-linejoin:miter;stroke-miterlimit:4;stroke-opacity:1;stroke-dasharray:none;stroke-dashoffset:0;marker:none;visibility:visible;display:inline;overflow:visible" />
    </g>
  </g>
</svg>
